<svg width="1440" height="1024" viewBox="0 0 1440 1024" fill="none" xmlns="http://www.w3.org/2000/svg">
<g clip-path="url(#clip0_426_741)">
<rect width="1440" height="1024" fill="#BADEFF"/>
<path d="M184.476 253.542C101.675 255.801 0 163.731 0 163.731V1024H1751V253.542C1751 253.542 1677.94 177.852 1561.04 163.731C1444.15 149.609 1307.16 377.245 1219.49 377.245C1131.82 377.245 1099.55 217.956 989.96 190.844C880.371 163.731 778.087 288.563 699.548 287.998C621.008 287.433 555.255 85.7811 456.015 80.1325C356.775 74.484 267.277 251.283 184.476 253.542Z" fill="#6CBAFF" fill-opacity="0.4"/>
<path d="M108.435 379.943C16.7321 391.149 -104.317 256.439 -104.317 256.439L5.97606 1196.67L1951.78 1006.02L1813.42 244.354C1813.42 244.354 1744.16 129.999 1606.09 128.85C1468.01 127.701 1395.42 412.785 1272.37 436.779C1149.32 460.773 1117.22 295.387 991.721 281.029C866.218 266.671 769.688 398.849 682.333 406.852C594.979 414.855 494.232 226.486 383.177 231.814C272.121 237.142 200.138 368.737 108.435 379.943Z" fill="#6EBBFE" fill-opacity="0.4"/>
</g>
<defs>
<clipPath id="clip0_426_741">
<rect width="1440" height="1024" fill="white"/>
</clipPath>
</defs>
</svg>
