<svg width="1440" height="1024" viewBox="0 0 1440 1024" fill="none" xmlns="http://www.w3.org/2000/svg">
<g clip-path="url(#clip0_426_741)">
<rect width="1440" height="1024" fill="#BADEFF"/>
<path d="M151.5 299.247C83.5 301.373 0 214.764 0 214.764V1024H1438V299.247C1438 299.247 1378 228.047 1282 214.764C1186 201.48 1073.5 415.611 1001.5 415.611C929.5 415.611 903 265.773 813 240.268C723 214.764 639 332.191 574.5 331.659C510 331.128 456 141.438 374.5 136.125C293 130.811 219.5 297.122 151.5 299.247Z" fill="#6CBAFF" fill-opacity="0.4"/>
<path d="M92.9875 433.361C17.858 444.43 -81.5772 309.574 -81.5772 309.574L10.4632 1249.74L1604.69 1062L1489.96 300.304C1489.96 300.304 1433 185.874 1319.85 184.523C1206.7 183.172 1147.71 468.082 1046.92 491.89C946.123 515.698 919.527 350.304 816.654 335.766C713.78 321.227 634.908 453.232 563.336 461.105C491.765 468.979 408.872 280.506 317.873 285.67C226.874 290.834 168.117 422.293 92.9875 433.361Z" fill="#6EBBFE" fill-opacity="0.4"/>
</g>
<defs>
<clipPath id="clip0_426_741">
<rect width="1440" height="1024" fill="white"/>
</clipPath>
</defs>
</svg>
