<svg width="55" height="55" viewBox="0 0 55 55" fill="none" xmlns="http://www.w3.org/2000/svg">
<circle cx="27.5" cy="27.5" r="27.5" fill="#45555D"/>
<path d="M34.2753 29.4594C34.0998 29.3758 33.9515 29.2443 33.8475 29.0801C33.7435 28.9159 33.6881 28.7256 33.6875 28.5313V25.4375H25.4375C25.164 25.4375 24.9017 25.3289 24.7083 25.1355C24.5149 24.9421 24.4062 24.6798 24.4062 24.4063V22.3438C24.4062 22.0703 24.5149 21.808 24.7083 21.6146C24.9017 21.4212 25.164 21.3125 25.4375 21.3125H33.6875V18.2188C33.6878 18.0206 33.7451 17.8267 33.8527 17.6602C33.9603 17.4938 34.1135 17.3619 34.2941 17.2803C34.4748 17.1987 34.675 17.1709 34.8711 17.2001C35.0671 17.2294 35.2505 17.3145 35.3994 17.4453L41.5869 22.8388C41.6969 22.9354 41.785 23.0544 41.8455 23.1877C41.906 23.3211 41.9373 23.4658 41.9375 23.6122C41.9337 23.7636 41.8967 23.9123 41.8289 24.0478C41.7612 24.1832 41.6645 24.3021 41.5456 24.3959L35.3581 29.315C35.2093 29.4381 35.0288 29.5168 34.8374 29.5423C34.646 29.5679 34.4512 29.5391 34.2753 29.4594Z" fill="#F9BE4D"/>
<path d="M20.7247 25.5406C20.9002 25.6242 21.0485 25.7557 21.1525 25.9199C21.2565 26.0841 21.3119 26.2744 21.3125 26.4687V29.5625H29.5625C29.836 29.5625 30.0983 29.6711 30.2917 29.8645C30.4851 30.0579 30.5938 30.3202 30.5938 30.5937V32.6562C30.5938 32.9297 30.4851 33.1921 30.2917 33.3854C30.0983 33.5788 29.836 33.6875 29.5625 33.6875H21.3125V36.7812C21.3122 36.9794 21.2549 37.1733 21.1473 37.3398C21.0397 37.5062 20.8865 37.6381 20.7059 37.7197C20.5252 37.8013 20.325 37.8291 20.1289 37.7999C19.9329 37.7706 19.7495 37.6855 19.6006 37.5547L13.4131 32.1612C13.3031 32.0646 13.215 31.9456 13.1545 31.8123C13.094 31.6789 13.0627 31.5342 13.0625 31.3878C13.0663 31.2364 13.1033 31.0877 13.1711 30.9522C13.2388 30.8168 13.3355 30.6979 13.4544 30.6041L19.6419 25.685C19.7907 25.5619 19.9712 25.4832 20.1626 25.4577C20.354 25.4321 20.5488 25.4609 20.7247 25.5406Z" fill="#F4F4F4"/>
</svg>
