<svg width="215" height="50" viewBox="0 0 215 50" fill="none" xmlns="http://www.w3.org/2000/svg">
<path d="M62.5605 25.7549H65.1885C65.1357 26.6162 64.8984 27.3809 64.4766 28.0488C64.0605 28.7168 63.4775 29.2383 62.7275 29.6133C61.9834 29.9883 61.0869 30.1758 60.0381 30.1758C59.2178 30.1758 58.4824 30.0352 57.832 29.7539C57.1816 29.4668 56.625 29.0566 56.1621 28.5234C55.7051 27.9902 55.3564 27.3457 55.1162 26.5898C54.876 25.834 54.7559 24.9873 54.7559 24.0498V23.1621C54.7559 22.2246 54.8789 21.3779 55.125 20.6221C55.377 19.8604 55.7344 19.2129 56.1973 18.6797C56.666 18.1465 57.2256 17.7363 57.876 17.4492C58.5264 17.1621 59.2529 17.0186 60.0557 17.0186C61.1221 17.0186 62.0215 17.2119 62.7539 17.5986C63.4922 17.9854 64.0635 18.5186 64.4678 19.1982C64.8779 19.8779 65.124 20.6514 65.2061 21.5186H62.5693C62.54 21.0029 62.4375 20.5664 62.2617 20.209C62.0859 19.8457 61.8193 19.5732 61.4619 19.3916C61.1104 19.2041 60.6416 19.1104 60.0557 19.1104C59.6162 19.1104 59.2324 19.1924 58.9043 19.3564C58.5762 19.5205 58.3008 19.7695 58.0781 20.1035C57.8555 20.4375 57.6885 20.8594 57.5771 21.3691C57.4717 21.873 57.4189 22.4648 57.4189 23.1445V24.0498C57.4189 24.7119 57.4688 25.2949 57.5684 25.7988C57.668 26.2969 57.8203 26.7188 58.0254 27.0645C58.2363 27.4043 58.5059 27.6621 58.834 27.8379C59.168 28.0078 59.5693 28.0928 60.0381 28.0928C60.5889 28.0928 61.043 28.0049 61.4004 27.8291C61.7578 27.6533 62.0303 27.3926 62.2178 27.0469C62.4111 26.7012 62.5254 26.2705 62.5605 25.7549ZM72.3867 27.7236V20.4902H74.918V30H72.5361L72.3867 27.7236ZM72.668 25.7725L73.415 25.7549C73.415 26.3877 73.3418 26.9766 73.1953 27.5215C73.0488 28.0605 72.8291 28.5293 72.5361 28.9277C72.2432 29.3203 71.874 29.6279 71.4287 29.8506C70.9834 30.0674 70.459 30.1758 69.8555 30.1758C69.3926 30.1758 68.9648 30.1113 68.5723 29.9824C68.1855 29.8477 67.8516 29.6396 67.5703 29.3584C67.2949 29.0713 67.0781 28.7051 66.9199 28.2598C66.7676 27.8086 66.6914 27.2666 66.6914 26.6338V20.4902H69.2227V26.6514C69.2227 26.9326 69.2549 27.1699 69.3193 27.3633C69.3896 27.5566 69.4863 27.7148 69.6094 27.8379C69.7324 27.9609 69.876 28.0488 70.04 28.1016C70.21 28.1543 70.3975 28.1807 70.6025 28.1807C71.124 28.1807 71.5342 28.0752 71.833 27.8643C72.1377 27.6533 72.3516 27.3662 72.4746 27.0029C72.6035 26.6338 72.668 26.2236 72.668 25.7725ZM79.3828 22.5645V30H76.8516V20.4902H79.2334L79.3828 22.5645ZM82.248 20.4287L82.2041 22.7754C82.0811 22.7578 81.9316 22.7432 81.7559 22.7314C81.5859 22.7139 81.4307 22.7051 81.29 22.7051C80.9326 22.7051 80.6221 22.752 80.3584 22.8457C80.1006 22.9336 79.8838 23.0654 79.708 23.2412C79.5381 23.417 79.4092 23.6309 79.3213 23.8828C79.2393 24.1348 79.1924 24.4219 79.1807 24.7441L78.6709 24.5859C78.6709 23.9707 78.7324 23.4053 78.8555 22.8896C78.9785 22.3682 79.1572 21.9141 79.3916 21.5273C79.6318 21.1406 79.9248 20.8418 80.2705 20.6309C80.6162 20.4199 81.0117 20.3145 81.457 20.3145C81.5977 20.3145 81.7412 20.3262 81.8877 20.3496C82.0342 20.3672 82.1543 20.3936 82.248 20.4287ZM85.9746 22.5645V30H83.4434V20.4902H85.8252L85.9746 22.5645ZM88.8398 20.4287L88.7959 22.7754C88.6729 22.7578 88.5234 22.7432 88.3477 22.7314C88.1777 22.7139 88.0225 22.7051 87.8818 22.7051C87.5244 22.7051 87.2139 22.752 86.9502 22.8457C86.6924 22.9336 86.4756 23.0654 86.2998 23.2412C86.1299 23.417 86.001 23.6309 85.9131 23.8828C85.8311 24.1348 85.7842 24.4219 85.7725 24.7441L85.2627 24.5859C85.2627 23.9707 85.3242 23.4053 85.4473 22.8896C85.5703 22.3682 85.749 21.9141 85.9834 21.5273C86.2236 21.1406 86.5166 20.8418 86.8623 20.6309C87.208 20.4199 87.6035 20.3145 88.0488 20.3145C88.1895 20.3145 88.333 20.3262 88.4795 20.3496C88.626 20.3672 88.7461 20.3936 88.8398 20.4287ZM94.2363 30.1758C93.498 30.1758 92.8359 30.0586 92.25 29.8242C91.6641 29.584 91.166 29.2529 90.7559 28.8311C90.3516 28.4092 90.041 27.9199 89.8242 27.3633C89.6074 26.8008 89.499 26.2031 89.499 25.5703V25.2188C89.499 24.498 89.6016 23.8389 89.8066 23.2412C90.0117 22.6436 90.3047 22.125 90.6855 21.6855C91.0723 21.2461 91.541 20.9092 92.0918 20.6748C92.6426 20.4346 93.2637 20.3145 93.9551 20.3145C94.6289 20.3145 95.2266 20.4258 95.748 20.6484C96.2695 20.8711 96.7061 21.1875 97.0576 21.5977C97.415 22.0078 97.6846 22.5 97.8662 23.0742C98.0479 23.6426 98.1387 24.2754 98.1387 24.9727V26.0273H90.5801V24.3398H95.6514V24.1465C95.6514 23.7949 95.5869 23.4814 95.458 23.2061C95.335 22.9248 95.1475 22.7021 94.8955 22.5381C94.6436 22.374 94.3213 22.292 93.9287 22.292C93.5947 22.292 93.3076 22.3652 93.0674 22.5117C92.8271 22.6582 92.6309 22.8633 92.4785 23.127C92.332 23.3906 92.2207 23.7012 92.1445 24.0586C92.0742 24.4102 92.0391 24.7969 92.0391 25.2188V25.5703C92.0391 25.9512 92.0918 26.3027 92.1973 26.625C92.3086 26.9473 92.4639 27.2256 92.6631 27.46C92.8682 27.6943 93.1143 27.876 93.4014 28.0049C93.6943 28.1338 94.0254 28.1982 94.3945 28.1982C94.8516 28.1982 95.2764 28.1104 95.6689 27.9346C96.0674 27.7529 96.4102 27.4805 96.6973 27.1172L97.9277 28.4531C97.7285 28.7402 97.4561 29.0156 97.1104 29.2793C96.7705 29.543 96.3604 29.7598 95.8799 29.9297C95.3994 30.0938 94.8516 30.1758 94.2363 30.1758ZM102.059 22.5205V30H99.5273V20.4902H101.9L102.059 22.5205ZM101.689 24.9111H101.004C101.004 24.208 101.095 23.5752 101.276 23.0127C101.458 22.4443 101.713 21.9609 102.041 21.5625C102.369 21.1582 102.759 20.8506 103.21 20.6396C103.667 20.4229 104.177 20.3145 104.739 20.3145C105.185 20.3145 105.592 20.3789 105.961 20.5078C106.33 20.6367 106.646 20.8418 106.91 21.123C107.18 21.4043 107.385 21.7764 107.525 22.2393C107.672 22.7021 107.745 23.2676 107.745 23.9355V30H105.196V23.9268C105.196 23.5049 105.138 23.1768 105.021 22.9424C104.903 22.708 104.73 22.5439 104.502 22.4502C104.279 22.3506 104.004 22.3008 103.676 22.3008C103.336 22.3008 103.04 22.3682 102.788 22.5029C102.542 22.6377 102.337 22.8252 102.173 23.0654C102.015 23.2998 101.895 23.5752 101.812 23.8916C101.73 24.208 101.689 24.5479 101.689 24.9111ZM113.599 28.1982C113.909 28.1982 114.185 28.1396 114.425 28.0225C114.665 27.8994 114.853 27.7295 114.987 27.5127C115.128 27.29 115.201 27.0293 115.207 26.7305H117.589C117.583 27.3984 117.404 27.9932 117.053 28.5146C116.701 29.0303 116.229 29.4375 115.638 29.7363C115.046 30.0293 114.384 30.1758 113.651 30.1758C112.913 30.1758 112.269 30.0527 111.718 29.8066C111.173 29.5605 110.719 29.2207 110.355 28.7871C109.992 28.3477 109.72 27.8379 109.538 27.2578C109.356 26.6719 109.266 26.0449 109.266 25.377V25.1221C109.266 24.4482 109.356 23.8213 109.538 23.2412C109.72 22.6553 109.992 22.1455 110.355 21.7119C110.719 21.2725 111.173 20.9297 111.718 20.6836C112.263 20.4375 112.901 20.3145 113.634 20.3145C114.413 20.3145 115.096 20.4639 115.682 20.7627C116.273 21.0615 116.736 21.4893 117.07 22.0459C117.41 22.5967 117.583 23.25 117.589 24.0059H115.207C115.201 23.6895 115.134 23.4023 115.005 23.1445C114.882 22.8867 114.7 22.6816 114.46 22.5293C114.226 22.3711 113.936 22.292 113.59 22.292C113.221 22.292 112.919 22.3711 112.685 22.5293C112.45 22.6816 112.269 22.8926 112.14 23.1621C112.011 23.4258 111.92 23.7275 111.867 24.0674C111.82 24.4014 111.797 24.7529 111.797 25.1221V25.377C111.797 25.7461 111.82 26.1006 111.867 26.4404C111.914 26.7803 112.002 27.082 112.131 27.3457C112.266 27.6094 112.45 27.8174 112.685 27.9697C112.919 28.1221 113.224 28.1982 113.599 28.1982ZM121.878 28.9277L124.4 20.4902H127.116L123.293 31.4326C123.211 31.6729 123.1 31.9307 122.959 32.2061C122.824 32.4814 122.64 32.7422 122.405 32.9883C122.177 33.2402 121.887 33.4453 121.535 33.6035C121.189 33.7617 120.765 33.8408 120.261 33.8408C120.021 33.8408 119.824 33.8262 119.672 33.7969C119.52 33.7676 119.338 33.7266 119.127 33.6738V31.8193C119.191 31.8193 119.259 31.8193 119.329 31.8193C119.399 31.8252 119.467 31.8281 119.531 31.8281C119.865 31.8281 120.138 31.79 120.349 31.7139C120.56 31.6377 120.729 31.5205 120.858 31.3623C120.987 31.21 121.09 31.0107 121.166 30.7646L121.878 28.9277ZM120.823 20.4902L122.889 27.3809L123.249 30.0615L121.526 30.2461L118.107 20.4902H120.823ZM140.186 25.7549H142.813C142.761 26.6162 142.523 27.3809 142.102 28.0488C141.686 28.7168 141.103 29.2383 140.353 29.6133C139.608 29.9883 138.712 30.1758 137.663 30.1758C136.843 30.1758 136.107 30.0352 135.457 29.7539C134.807 29.4668 134.25 29.0566 133.787 28.5234C133.33 27.9902 132.981 27.3457 132.741 26.5898C132.501 25.834 132.381 24.9873 132.381 24.0498V23.1621C132.381 22.2246 132.504 21.3779 132.75 20.6221C133.002 19.8604 133.359 19.2129 133.822 18.6797C134.291 18.1465 134.851 17.7363 135.501 17.4492C136.151 17.1621 136.878 17.0186 137.681 17.0186C138.747 17.0186 139.646 17.2119 140.379 17.5986C141.117 17.9854 141.688 18.5186 142.093 19.1982C142.503 19.8779 142.749 20.6514 142.831 21.5186H140.194C140.165 21.0029 140.062 20.5664 139.887 20.209C139.711 19.8457 139.444 19.5732 139.087 19.3916C138.735 19.2041 138.267 19.1104 137.681 19.1104C137.241 19.1104 136.857 19.1924 136.529 19.3564C136.201 19.5205 135.926 19.7695 135.703 20.1035C135.48 20.4375 135.313 20.8594 135.202 21.3691C135.097 21.873 135.044 22.4648 135.044 23.1445V24.0498C135.044 24.7119 135.094 25.2949 135.193 25.7988C135.293 26.2969 135.445 26.7188 135.65 27.0645C135.861 27.4043 136.131 27.6621 136.459 27.8379C136.793 28.0078 137.194 28.0928 137.663 28.0928C138.214 28.0928 138.668 28.0049 139.025 27.8291C139.383 27.6533 139.655 27.3926 139.843 27.0469C140.036 26.7012 140.15 26.2705 140.186 25.7549ZM143.982 25.3418V25.1572C143.982 24.46 144.082 23.8184 144.281 23.2324C144.48 22.6406 144.771 22.1279 145.151 21.6943C145.532 21.2607 146.001 20.9238 146.558 20.6836C147.114 20.4375 147.753 20.3145 148.474 20.3145C149.194 20.3145 149.836 20.4375 150.398 20.6836C150.961 20.9238 151.433 21.2607 151.813 21.6943C152.2 22.1279 152.493 22.6406 152.692 23.2324C152.892 23.8184 152.991 24.46 152.991 25.1572V25.3418C152.991 26.0332 152.892 26.6748 152.692 27.2666C152.493 27.8525 152.2 28.3652 151.813 28.8047C151.433 29.2383 150.964 29.5752 150.407 29.8154C149.851 30.0557 149.212 30.1758 148.491 30.1758C147.771 30.1758 147.129 30.0557 146.566 29.8154C146.01 29.5752 145.538 29.2383 145.151 28.8047C144.771 28.3652 144.48 27.8525 144.281 27.2666C144.082 26.6748 143.982 26.0332 143.982 25.3418ZM146.514 25.1572V25.3418C146.514 25.7402 146.549 26.1123 146.619 26.458C146.689 26.8037 146.801 27.1084 146.953 27.3721C147.111 27.6299 147.316 27.832 147.568 27.9785C147.82 28.125 148.128 28.1982 148.491 28.1982C148.843 28.1982 149.145 28.125 149.396 27.9785C149.648 27.832 149.851 27.6299 150.003 27.3721C150.155 27.1084 150.267 26.8037 150.337 26.458C150.413 26.1123 150.451 25.7402 150.451 25.3418V25.1572C150.451 24.7705 150.413 24.4072 150.337 24.0674C150.267 23.7217 150.152 23.417 149.994 23.1533C149.842 22.8838 149.64 22.6729 149.388 22.5205C149.136 22.3682 148.831 22.292 148.474 22.292C148.116 22.292 147.812 22.3682 147.56 22.5205C147.313 22.6729 147.111 22.8838 146.953 23.1533C146.801 23.417 146.689 23.7217 146.619 24.0674C146.549 24.4072 146.514 24.7705 146.514 25.1572ZM157.025 22.5205V30H154.494V20.4902H156.867L157.025 22.5205ZM156.656 24.9111H155.971C155.971 24.208 156.062 23.5752 156.243 23.0127C156.425 22.4443 156.68 21.9609 157.008 21.5625C157.336 21.1582 157.726 20.8506 158.177 20.6396C158.634 20.4229 159.144 20.3145 159.706 20.3145C160.151 20.3145 160.559 20.3789 160.928 20.5078C161.297 20.6367 161.613 20.8418 161.877 21.123C162.146 21.4043 162.352 21.7764 162.492 22.2393C162.639 22.7021 162.712 23.2676 162.712 23.9355V30H160.163V23.9268C160.163 23.5049 160.104 23.1768 159.987 22.9424C159.87 22.708 159.697 22.5439 159.469 22.4502C159.246 22.3506 158.971 22.3008 158.643 22.3008C158.303 22.3008 158.007 22.3682 157.755 22.5029C157.509 22.6377 157.304 22.8252 157.14 23.0654C156.981 23.2998 156.861 23.5752 156.779 23.8916C156.697 24.208 156.656 24.5479 156.656 24.9111ZM167.871 28.1543L169.98 20.4902H172.626L169.418 30H167.818L167.871 28.1543ZM166.421 20.4902L168.539 28.1631L168.583 30H166.975L163.767 20.4902H166.421ZM178.014 30.1758C177.275 30.1758 176.613 30.0586 176.027 29.8242C175.441 29.584 174.943 29.2529 174.533 28.8311C174.129 28.4092 173.818 27.9199 173.602 27.3633C173.385 26.8008 173.276 26.2031 173.276 25.5703V25.2188C173.276 24.498 173.379 23.8389 173.584 23.2412C173.789 22.6436 174.082 22.125 174.463 21.6855C174.85 21.2461 175.318 20.9092 175.869 20.6748C176.42 20.4346 177.041 20.3145 177.732 20.3145C178.406 20.3145 179.004 20.4258 179.525 20.6484C180.047 20.8711 180.483 21.1875 180.835 21.5977C181.192 22.0078 181.462 22.5 181.644 23.0742C181.825 23.6426 181.916 24.2754 181.916 24.9727V26.0273H174.357V24.3398H179.429V24.1465C179.429 23.7949 179.364 23.4814 179.235 23.2061C179.112 22.9248 178.925 22.7021 178.673 22.5381C178.421 22.374 178.099 22.292 177.706 22.292C177.372 22.292 177.085 22.3652 176.845 22.5117C176.604 22.6582 176.408 22.8633 176.256 23.127C176.109 23.3906 175.998 23.7012 175.922 24.0586C175.852 24.4102 175.816 24.7969 175.816 25.2188V25.5703C175.816 25.9512 175.869 26.3027 175.975 26.625C176.086 26.9473 176.241 27.2256 176.44 27.46C176.646 27.6943 176.892 27.876 177.179 28.0049C177.472 28.1338 177.803 28.1982 178.172 28.1982C178.629 28.1982 179.054 28.1104 179.446 27.9346C179.845 27.7529 180.188 27.4805 180.475 27.1172L181.705 28.4531C181.506 28.7402 181.233 29.0156 180.888 29.2793C180.548 29.543 180.138 29.7598 179.657 29.9297C179.177 30.0938 178.629 30.1758 178.014 30.1758ZM185.889 22.5645V30H183.357V20.4902H185.739L185.889 22.5645ZM188.754 20.4287L188.71 22.7754C188.587 22.7578 188.438 22.7432 188.262 22.7314C188.092 22.7139 187.937 22.7051 187.796 22.7051C187.438 22.7051 187.128 22.752 186.864 22.8457C186.606 22.9336 186.39 23.0654 186.214 23.2412C186.044 23.417 185.915 23.6309 185.827 23.8828C185.745 24.1348 185.698 24.4219 185.687 24.7441L185.177 24.5859C185.177 23.9707 185.238 23.4053 185.361 22.8896C185.484 22.3682 185.663 21.9141 185.897 21.5273C186.138 21.1406 186.431 20.8418 186.776 20.6309C187.122 20.4199 187.518 20.3145 187.963 20.3145C188.104 20.3145 188.247 20.3262 188.394 20.3496C188.54 20.3672 188.66 20.3936 188.754 20.4287ZM195.047 20.4902V22.2832H189.51V20.4902H195.047ZM190.881 18.1436H193.412V27.1348C193.412 27.4102 193.447 27.6211 193.518 27.7676C193.594 27.9141 193.705 28.0166 193.852 28.0752C193.998 28.1279 194.183 28.1543 194.405 28.1543C194.563 28.1543 194.704 28.1484 194.827 28.1367C194.956 28.1191 195.064 28.1016 195.152 28.084L195.161 29.9473C194.944 30.0176 194.71 30.0732 194.458 30.1143C194.206 30.1553 193.928 30.1758 193.623 30.1758C193.066 30.1758 192.58 30.085 192.164 29.9033C191.754 29.7158 191.438 29.417 191.215 29.0068C190.992 28.5967 190.881 28.0576 190.881 27.3896V18.1436ZM200.865 30.1758C200.127 30.1758 199.465 30.0586 198.879 29.8242C198.293 29.584 197.795 29.2529 197.385 28.8311C196.98 28.4092 196.67 27.9199 196.453 27.3633C196.236 26.8008 196.128 26.2031 196.128 25.5703V25.2188C196.128 24.498 196.23 23.8389 196.436 23.2412C196.641 22.6436 196.934 22.125 197.314 21.6855C197.701 21.2461 198.17 20.9092 198.721 20.6748C199.271 20.4346 199.893 20.3145 200.584 20.3145C201.258 20.3145 201.855 20.4258 202.377 20.6484C202.898 20.8711 203.335 21.1875 203.687 21.5977C204.044 22.0078 204.313 22.5 204.495 23.0742C204.677 23.6426 204.768 24.2754 204.768 24.9727V26.0273H197.209V24.3398H202.28V24.1465C202.28 23.7949 202.216 23.4814 202.087 23.2061C201.964 22.9248 201.776 22.7021 201.524 22.5381C201.272 22.374 200.95 22.292 200.558 22.292C200.224 22.292 199.937 22.3652 199.696 22.5117C199.456 22.6582 199.26 22.8633 199.107 23.127C198.961 23.3906 198.85 23.7012 198.773 24.0586C198.703 24.4102 198.668 24.7969 198.668 25.2188V25.5703C198.668 25.9512 198.721 26.3027 198.826 26.625C198.938 26.9473 199.093 27.2256 199.292 27.46C199.497 27.6943 199.743 27.876 200.03 28.0049C200.323 28.1338 200.654 28.1982 201.023 28.1982C201.48 28.1982 201.905 28.1104 202.298 27.9346C202.696 27.7529 203.039 27.4805 203.326 27.1172L204.557 28.4531C204.357 28.7402 204.085 29.0156 203.739 29.2793C203.399 29.543 202.989 29.7598 202.509 29.9297C202.028 30.0938 201.48 30.1758 200.865 30.1758ZM208.74 22.5645V30H206.209V20.4902H208.591L208.74 22.5645ZM211.605 20.4287L211.562 22.7754C211.438 22.7578 211.289 22.7432 211.113 22.7314C210.943 22.7139 210.788 22.7051 210.647 22.7051C210.29 22.7051 209.979 22.752 209.716 22.8457C209.458 22.9336 209.241 23.0654 209.065 23.2412C208.896 23.417 208.767 23.6309 208.679 23.8828C208.597 24.1348 208.55 24.4219 208.538 24.7441L208.028 24.5859C208.028 23.9707 208.09 23.4053 208.213 22.8896C208.336 22.3682 208.515 21.9141 208.749 21.5273C208.989 21.1406 209.282 20.8418 209.628 20.6309C209.974 20.4199 210.369 20.3145 210.814 20.3145C210.955 20.3145 211.099 20.3262 211.245 20.3496C211.392 20.3672 211.512 20.3936 211.605 20.4287Z" fill="#386176"/>
<path d="M7.90208 23.9134C11.5347 21.9317 16.0987 23.2823 18.0842 26.9227C20.0708 30.5644 18.7152 35.0947 15.0827 37.0777C11.4514 39.0595 6.90873 37.7468 4.92205 34.1051C4.42862 33.2046 4.1255 32.2123 4.03148 31.1898C3.93747 30.1673 4.05457 29.1364 4.37552 28.161C4.96349 26.3456 6.22583 24.8252 7.90208 23.9134Z" fill="#FFCC00"/>
<path d="M12.238 26C11.5062 26.0014 10.8047 26.3179 10.2872 26.8802C9.7697 27.4424 9.47843 28.2045 9.47718 28.9996H8.55651C8.50907 28.9915 8.46076 28.9915 8.41332 28.9996C8.35091 29.0073 8.29058 29.0288 8.23596 29.0625C8.18134 29.0962 8.13355 29.1415 8.09546 29.1958C8.05738 29.25 8.02978 29.3121 8.01433 29.3783C7.99887 29.4445 7.99588 29.5133 8.00554 29.5808C8.01519 29.6482 8.03729 29.7129 8.07051 29.7708C8.10372 29.8288 8.14737 29.8787 8.19883 29.9179C8.25029 29.957 8.3085 29.9845 8.36996 29.9986C8.43143 30.0126 8.49488 30.0132 8.55651 30H9.47718V31.0002H8.55651C8.50907 30.9921 8.46076 30.9921 8.41332 31.0002C8.35091 31.0079 8.29058 31.0293 8.23596 31.063C8.18134 31.0967 8.13355 31.1421 8.09546 31.1964C8.05738 31.2507 8.02978 31.3128 8.01433 31.3789C7.99887 31.4451 7.99588 31.5139 8.00554 31.5814C8.01519 31.6488 8.03729 31.7133 8.07051 31.7713C8.10372 31.8292 8.14737 31.8793 8.19883 31.9185C8.25029 31.9576 8.3085 31.9851 8.36996 31.9992C8.43143 32.0133 8.49488 32.0136 8.55651 32.0004H9.47718C9.47843 32.7955 9.7697 33.5578 10.2872 34.12C10.8047 34.6822 11.5062 34.9986 12.238 35C12.97 34.999 13.6718 34.6827 14.1896 34.1205C14.7073 33.5582 14.9987 32.7958 15 32.0004C15 31.9347 14.9881 31.8698 14.965 31.8091C14.9418 31.7484 14.9079 31.6933 14.8652 31.6468C14.8224 31.6004 14.7717 31.5635 14.7158 31.5384C14.66 31.5132 14.6001 31.5004 14.5397 31.5004C14.4792 31.5004 14.4194 31.5132 14.3635 31.5384C14.3077 31.5635 14.2569 31.6004 14.2142 31.6468C14.1714 31.6933 14.1375 31.7484 14.1144 31.8091C14.0912 31.8698 14.0793 31.9347 14.0793 32.0004C14.0793 33.1164 13.2664 33.9998 12.238 33.9998C11.9959 34.0017 11.7558 33.9513 11.5318 33.8515C11.3077 33.7517 11.1042 33.6045 10.933 33.4184C10.7617 33.2324 10.6263 33.0111 10.5344 32.7677C10.4425 32.5243 10.3961 32.2635 10.3978 32.0004H12.238C12.3601 32.0004 12.4772 31.9478 12.5635 31.854C12.6498 31.7602 12.6983 31.633 12.6983 31.5004C12.6983 31.3677 12.6498 31.2404 12.5635 31.1466C12.4772 31.0528 12.3601 31.0002 12.238 31.0002H10.3978V30H12.238C12.3601 30 12.4772 29.9472 12.5635 29.8534C12.6498 29.7596 12.6983 29.6324 12.6983 29.4998C12.6983 29.3671 12.6498 29.24 12.5635 29.1462C12.4772 29.0524 12.3601 28.9996 12.238 28.9996H10.3978C10.3978 27.8836 11.2108 27.0004 12.238 27.0004C13.2664 27.0004 14.0793 27.8836 14.0793 28.9996C14.0793 29.0653 14.0912 29.1304 14.1144 29.1911C14.1375 29.2517 14.1714 29.3069 14.2142 29.3533C14.2569 29.3998 14.3077 29.4365 14.3635 29.4616C14.4194 29.4868 14.4792 29.4998 14.5397 29.4998C14.6001 29.4998 14.66 29.4868 14.7158 29.4616C14.7717 29.4365 14.8224 29.3998 14.8652 29.3533C14.9079 29.3069 14.9418 29.2517 14.965 29.1911C14.9881 29.1304 15 29.0653 15 28.9996C14.9987 28.2042 14.7073 27.442 14.1896 26.8797C13.6718 26.3174 12.97 26.001 12.238 26Z" fill="#FF8E00"/>
<path d="M13.6018 23.2893C9.63757 22.1833 5.47626 24.3456 4.30737 28.1182C3.13713 31.8922 5.41147 35.7992 9.37977 36.9078C9.51744 36.9462 9.65512 36.9706 9.79279 37C7.99123 36.4017 6.50114 35.1693 5.63084 33.558C4.76054 31.9467 4.57665 30.0797 5.11722 28.3434C5.65474 26.6021 6.87455 25.1219 8.52634 24.2066C10.1781 23.2913 12.1367 23.0103 14 23.4212C13.8677 23.3751 13.7395 23.3265 13.6032 23.2881L13.6018 23.2893Z" fill="white"/>
<path d="M13.6264 24.0867C17.5962 25.1121 19.8621 28.7822 18.692 32.2835C18.4159 33.113 17.9562 33.8864 17.3391 34.5591C16.722 35.2318 15.9598 35.7905 15.0963 36.2033C14.2328 36.6162 13.285 36.875 12.3074 36.9646C11.3299 37.0543 10.3418 36.9731 9.39995 36.7259C9.26348 36.6902 9.13377 36.6427 9 36.6012C12.8454 37.3972 16.0356 34.7334 17.0003 31.8463C17.9664 28.9592 16.9328 25.1643 13.217 24C13.3535 24.0261 13.49 24.0511 13.6264 24.0867Z" fill="#FF8E00"/>
<path d="M5.56928 25.9041C6.20344 25.0855 7.00191 24.4075 7.91376 23.9134C11.561 21.9317 16.1435 23.2823 18.137 26.9227C18.6046 27.776 18.8872 28.6773 19 29.5836M19 31.4354C18.8956 32.2617 18.6528 33.0647 18.2814 33.811C17.5935 35.1983 16.4912 36.3395 15.1259 37.0777C11.4799 39.0595 6.91894 37.7468 4.92423 34.1051C4.23578 32.8525 3.92096 31.43 4.01685 30.0052M4.37549 28.1623C4.4566 27.9123 4.55291 27.6687 4.65937 27.4301" stroke="#386176" stroke-miterlimit="10" stroke-linecap="round" stroke-linejoin="round"/>
<path d="M41.4125 24.0917C44.9457 26.2479 46.0578 30.8773 43.898 34.4184C41.7369 37.9595 37.1359 39.0516 33.6027 36.8953C30.0708 34.7403 28.936 30.1501 31.0958 26.6077C31.629 25.7299 32.3368 24.971 33.1754 24.3781C34.014 23.7853 34.9655 23.3711 35.9708 23.1613C36.2258 23.1082 36.4845 23.0678 36.7458 23.0413C38.3747 22.869 40.015 23.2374 41.4125 24.0917Z" fill="#FFCC00"/>
<path d="M37.5845 23.0022C33.4948 22.9021 30.1026 26.1896 30.0024 30.3442C29.9776 31.3279 30.145 32.3069 30.4951 33.2248C30.8452 34.1428 31.371 34.9816 32.0423 35.6931C32.7137 36.4046 33.5173 36.9747 34.407 37.3706C35.2966 37.7665 36.2548 37.9804 37.2264 38C37.368 38 37.507 37.9865 37.6459 37.9865C35.7618 37.843 34.0043 36.9717 32.737 35.5527C31.4697 34.1337 30.7896 32.2758 30.8374 30.3632C30.8811 28.4463 31.6474 26.6189 32.9793 25.256C34.3111 23.893 36.1075 23.0977 38 23.0333C37.8624 23.0197 37.7248 23.0049 37.5845 23.0022Z" fill="white"/>
<path d="M37.7761 23.0014C41.8639 23.1015 45.0966 26.55 44.9978 30.7048C44.9755 31.6885 44.7614 32.658 44.3679 33.5576C43.9744 34.4572 43.4092 35.2692 42.7049 35.9468C42.0005 36.6245 41.1708 37.1545 40.2635 37.5063C39.3563 37.8582 38.3893 38.0249 37.4181 37.997C37.2765 37.997 37.1389 37.9768 37 37.9659C40.902 37.8428 43.1743 34.0871 43.2558 30.6615C43.3373 27.2373 41.2467 23.3302 37.3594 23.0136C37.4983 23.0136 37.6345 23.0001 37.7761 23.0014Z" fill="#FF8E00"/>
<path d="M38.5219 23.0241C39.5463 23.1625 40.5308 23.5135 41.4125 24.0546C44.9457 26.2158 46.0578 30.8585 43.898 34.4085C43.4094 35.2145 42.7734 35.9207 42.0235 36.49M40.4178 37.4154C39.3219 37.876 38.1325 38.0689 36.9476 37.9782C35.7628 37.8875 34.6164 37.5158 33.6027 36.8938C30.0708 34.7327 28.936 30.1292 31.0958 26.5766C31.8379 25.3529 32.913 24.3672 34.1948 23.7356M35.9708 23.1215C36.2258 23.0671 36.4845 23.0266 36.7458 23" stroke="#386176" stroke-miterlimit="10" stroke-linecap="round" stroke-linejoin="round"/>
<path d="M24.4974 12C30.8466 12 36 17.1715 36 23.5322C36 29.8955 30.8466 35 24.4987 35C18.1534 35 13 29.8955 13 23.5322C13 21.2592 13.6577 19.1368 14.7942 17.3478C15.5283 16.1936 16.4608 15.1784 17.5485 14.3489C19.5439 12.8229 21.9854 11.9973 24.4974 12Z" fill="#FFCC00"/>
<path d="M24.4107 13.0012C18.6585 13.0012 14 17.7175 14 23.534C14 29.3543 18.6535 34 24.4107 34C24.6104 34 24.804 33.9798 25 33.9685C19.5187 33.6638 15.1749 29.1529 15.1749 23.534C15.1749 17.919 19.5212 13.3425 24.9975 13.0315C24.8015 13.0189 24.6092 13.0012 24.4107 13.0012Z" fill="white"/>
<path d="M24.5881 13C30.341 13 35 17.7166 35 23.5334C35 29.3541 30.346 34 24.5881 34C24.3896 34 24.196 33.9798 24 33.9685C29.4819 33.6638 32.55 28.3305 32.55 23.5334C32.55 18.7364 29.4781 13.3413 24.0025 13.0303C24.1973 13.0177 24.3884 13 24.5881 13Z" fill="#FF8E00"/>
<path d="M38.238 26C37.5062 26.0014 36.8047 26.3178 36.2872 26.88C35.7697 27.4422 35.4784 28.2045 35.4772 28.9996H34.5565C34.5091 28.9915 34.4608 28.9915 34.4133 28.9996C34.3509 29.0073 34.2906 29.0286 34.236 29.0624C34.1813 29.0961 34.1335 29.1415 34.0955 29.1958C34.0574 29.25 34.0298 29.3121 34.0143 29.3783C33.9989 29.4445 33.9959 29.5133 34.0055 29.5808C34.0152 29.6482 34.0373 29.7127 34.0705 29.7707C34.1037 29.8286 34.1474 29.8787 34.1988 29.9179C34.2503 29.957 34.3085 29.9845 34.37 29.9986C34.4314 30.0126 34.4949 30.013 34.5565 29.9998H35.4772V31.0002H34.5565C34.5091 30.9921 34.4608 30.9921 34.4133 31.0002C34.3509 31.0079 34.2906 31.0293 34.236 31.063C34.1813 31.0967 34.1335 31.1421 34.0955 31.1964C34.0574 31.2507 34.0298 31.3126 34.0143 31.3787C33.9989 31.4449 33.9959 31.5138 34.0055 31.5812C34.0152 31.6487 34.0373 31.7133 34.0705 31.7713C34.1037 31.8292 34.1474 31.8792 34.1988 31.9183C34.2503 31.9575 34.3085 31.9849 34.37 31.999C34.4314 32.0131 34.4949 32.0136 34.5565 32.0004H35.4772C35.4784 32.7955 35.7697 33.5578 36.2872 34.12C36.8047 34.6822 37.5062 34.9986 38.238 35C38.97 34.999 39.6718 34.6826 40.1896 34.1203C40.7073 33.558 40.9987 32.7958 41 32.0004C41 31.8678 40.9515 31.7406 40.8652 31.6468C40.7788 31.553 40.6618 31.5002 40.5397 31.5002C40.4176 31.5002 40.3005 31.553 40.2142 31.6468C40.1278 31.7406 40.0793 31.8678 40.0793 32.0004C40.0793 33.1164 39.2664 33.9998 38.238 33.9998C37.9959 34.0017 37.7558 33.9511 37.5318 33.8513C37.3077 33.7515 37.1042 33.6043 36.933 33.4183C36.7617 33.2323 36.6263 33.0111 36.5344 32.7677C36.4425 32.5243 36.3961 32.2635 36.3978 32.0004H38.238C38.3601 32.0004 38.4772 31.9478 38.5635 31.854C38.6498 31.7602 38.6983 31.6329 38.6983 31.5002C38.6983 31.3676 38.6498 31.2404 38.5635 31.1466C38.4772 31.0528 38.3601 31.0002 38.238 31.0002H36.3978V29.9998H38.238C38.3601 29.9998 38.4772 29.9472 38.5635 29.8534C38.6498 29.7596 38.6983 29.6324 38.6983 29.4998C38.6983 29.3671 38.6498 29.2398 38.5635 29.146C38.4772 29.0522 38.3601 28.9996 38.238 28.9996H36.3978C36.3978 27.8836 37.2108 27.0002 38.238 27.0002C39.2664 27.0002 40.0793 27.8836 40.0793 28.9996C40.0793 29.1322 40.1278 29.2594 40.2142 29.3532C40.3005 29.447 40.4176 29.4998 40.5397 29.4998C40.6618 29.4998 40.7788 29.447 40.8652 29.3532C40.9515 29.2594 41 29.1322 41 28.9996C40.9987 28.2042 40.7073 27.4418 40.1896 26.8795C39.6718 26.3173 38.97 26.001 38.238 26Z" fill="#FF8E00"/>
<path d="M19.8949 12.9615C21.3461 12.3249 22.914 11.9975 24.4987 12C30.8466 12 36 17.1718 36 23.5328C36 25.0233 35.7168 26.4443 35.202 27.7469M33.8377 30.2388C33.0895 31.2736 32.1743 32.1766 31.1297 32.9109C29.1881 34.2754 26.8717 35.0051 24.4987 35C18.1534 35 13 29.8952 13 23.5315C13 21.2584 13.6577 19.1359 14.7942 17.3468M16.6295 15.1265C16.9217 14.851 17.228 14.591 17.5472 14.3478" stroke="#386176" stroke-miterlimit="10" stroke-linecap="round" stroke-linejoin="round"/>
<path d="M25.045 17C23.9965 17.0017 22.9915 17.4588 22.2501 18.271C21.5087 19.0832 21.0915 20.1843 21.09 21.3329H19.7704C19.702 21.321 19.6324 21.321 19.564 21.3329C19.3891 21.3629 19.2324 21.4678 19.1281 21.6244C19.0238 21.7811 18.9807 21.9767 19.008 22.1683C19.0354 22.3598 19.1311 22.5315 19.2741 22.6458C19.4171 22.76 19.5956 22.8073 19.7704 22.7773H21.0876V24.2228H19.7704C19.702 24.211 19.6324 24.211 19.564 24.2228C19.3933 24.2576 19.2417 24.3639 19.1414 24.5191C19.0411 24.6744 19 24.8665 19.0269 25.0544C19.0538 25.2423 19.1465 25.4112 19.2854 25.5254C19.4242 25.6396 19.5982 25.69 19.7704 25.6658H21.0876C21.0889 26.8149 21.5061 27.9165 22.2477 28.729C22.9894 29.5416 23.9949 29.9986 25.0438 30C26.0922 29.9983 27.0973 29.5412 27.8387 28.729C28.58 27.9168 28.9972 26.8157 28.9988 25.6671C29.0042 25.5687 28.9912 25.4701 28.9605 25.3775C28.9299 25.2848 28.8822 25.2001 28.8205 25.1283C28.7589 25.0566 28.6844 24.9994 28.6018 24.9603C28.5192 24.9212 28.4302 24.9011 28.3402 24.9011C28.2503 24.9011 28.1612 24.9212 28.0786 24.9603C27.996 24.9994 27.9216 25.0566 27.8599 25.1283C27.7983 25.2001 27.7506 25.2848 27.72 25.3775C27.6893 25.4701 27.6763 25.5687 27.6817 25.6671C27.6817 27.2791 26.5164 28.5557 25.0438 28.5557C24.6968 28.5587 24.3527 28.486 24.0316 28.3418C23.7105 28.1977 23.4188 27.9851 23.1734 27.7163C22.928 27.4475 22.7339 27.1278 22.6024 26.776C22.4708 26.4242 22.4044 26.0472 22.4071 25.6671H25.0438C25.1327 25.6712 25.2215 25.6557 25.3047 25.6212C25.388 25.5868 25.464 25.5343 25.5283 25.4668C25.5925 25.3994 25.6437 25.3183 25.6786 25.2286C25.7135 25.1389 25.7315 25.0425 25.7315 24.945C25.7315 24.8475 25.7135 24.751 25.6786 24.6613C25.6437 24.5716 25.5925 24.4907 25.5283 24.4233C25.464 24.3558 25.388 24.3031 25.3047 24.2687C25.2215 24.2343 25.1327 24.2187 25.0438 24.2228H22.4071V22.7773H25.0438C25.1336 22.7832 25.2236 22.7689 25.3082 22.7353C25.3927 22.7017 25.4702 22.6495 25.5357 22.582C25.6012 22.5144 25.6534 22.4328 25.689 22.3423C25.7247 22.2519 25.7431 22.1543 25.7431 22.0557C25.7431 21.9572 25.7247 21.8596 25.689 21.7692C25.6534 21.6787 25.6012 21.5971 25.5357 21.5295C25.4702 21.462 25.3927 21.4098 25.3082 21.3762C25.2236 21.3426 25.1336 21.3284 25.0438 21.3343H22.4071C22.4071 19.721 23.5712 18.4444 25.0438 18.4444C26.5152 18.4444 27.6805 19.7209 27.6805 21.3329C27.6767 21.4303 27.691 21.5277 27.7224 21.6189C27.7538 21.7101 27.8017 21.7933 27.8633 21.8637C27.9249 21.9341 27.9989 21.9902 28.0807 22.0285C28.1626 22.0667 28.2507 22.0864 28.3396 22.0864C28.4286 22.0864 28.5167 22.0667 28.5986 22.0285C28.6804 21.9902 28.7544 21.9341 28.816 21.8637C28.8775 21.7933 28.9255 21.7101 28.9569 21.6189C28.9883 21.5277 29.0026 21.4303 28.9988 21.3329C28.9972 20.1843 28.58 19.0832 27.8387 18.271C27.0973 17.4588 26.0934 17.0017 25.045 17Z" fill="#FF8E00"/>
</svg>
